<svg width="1200" height="420" viewBox="0 0 1200 420" fill="none" xmlns="http://www.w3.org/2000/svg">
  <rect width="1200" height="420" rx="24" fill="#13112A"/>
  <rect x="24" y="24" width="1152" height="372" rx="20" fill="#1E1A3D" stroke="#6366F1"/>
  <text x="60" y="84" fill="#EEF2FF" font-family="Arial, sans-serif" font-size="34" font-weight="700">TellaTV Downloader</text>
  <text x="60" y="118" fill="#C7D2FE" font-family="Arial, sans-serif" font-size="18">Save Tella videos, walkthroughs, and presentations as local MP4 files</text>
  <rect x="60" y="160" width="300" height="180" rx="18" fill="#2A2552"/>
  <rect x="450" y="160" width="300" height="180" rx="18" fill="#2A2552"/>
  <rect x="840" y="160" width="300" height="180" rx="18" fill="#2A2552"/>
  <circle cx="112" cy="208" r="24" fill="#818CF8"/>
  <text x="104" y="216" fill="#1E1B4B" font-family="Arial, sans-serif" font-size="18" font-weight="700">1</text>
  <circle cx="502" cy="208" r="24" fill="#F59E0B"/>
  <text x="494" y="216" fill="#451A03" font-family="Arial, sans-serif" font-size="18" font-weight="700">2</text>
  <circle cx="892" cy="208" r="24" fill="#22C55E"/>
  <text x="884" y="216" fill="#052E16" font-family="Arial, sans-serif" font-size="18" font-weight="700">3</text>
  <text x="150" y="214" fill="#EEF2FF" font-family="Arial, sans-serif" font-size="26" font-weight="700">Open the video</text>
  <text x="150" y="248" fill="#E0E7FF" font-family="Arial, sans-serif" font-size="18">Play the Tella video or</text>
  <text x="150" y="274" fill="#E0E7FF" font-family="Arial, sans-serif" font-size="18">supported embed on the page.</text>
  <text x="540" y="214" fill="#EEF2FF" font-family="Arial, sans-serif" font-size="26" font-weight="700">Detect the stream</text>
  <text x="540" y="248" fill="#E0E7FF" font-family="Arial, sans-serif" font-size="18">Use the on-page control or</text>
  <text x="540" y="274" fill="#E0E7FF" font-family="Arial, sans-serif" font-size="18">the extension popup to start.</text>
  <text x="930" y="214" fill="#EEF2FF" font-family="Arial, sans-serif" font-size="26" font-weight="700">Save as MP4</text>
  <text x="930" y="248" fill="#E0E7FF" font-family="Arial, sans-serif" font-size="18">Keep a local copy for</text>
  <text x="930" y="274" fill="#E0E7FF" font-family="Arial, sans-serif" font-size="18">offline review later.</text>
  <path d="M372 250H438" stroke="#6366F1" stroke-width="6" stroke-linecap="round"/>
  <path d="M762 250H828" stroke="#6366F1" stroke-width="6" stroke-linecap="round"/>
</svg>
